<svg id="Layer_1" data-name="Layer 1" xmlns="http://www.w3.org/2000/svg" viewBox="0 0 650.04 615.35"><defs><style>.cls-1{fill:#ed2024;}</style></defs><title>Airtel Logooo</title><g id="g20"><g id="g4575"><g id="g4557"><path id="path4" class="cls-1" d="M402.29,67.61a35.83,35.83,0,0,1-6.55.81c-9.33.18-39.49,7.81-50.44,12.65-1,.45-3.77,1.62-6.28,2.6-6.55,2.52-23.88,10.78-26.57,12.75a16.77,16.77,0,0,1-4.67,2.15c-1.34.36-2.42,1-2.42,1.35s-.72.9-1.53,1.26a23.56,23.56,0,0,0-4.3,2.33,38.38,38.38,0,0,1-4.76,2.69,26.42,26.42,0,0,0-5,3.14,15.46,15.46,0,0,1-3.5,2.25c-2.06,0-31,21-39.13,28.36-6.64,6-18.94,19.12-18.94,20.19a8.86,8.86,0,0,1-1.88,2.7c-2.69,3-10.77,15.79-13.11,20.55-1,2.24-3,6.19-4.21,8.89-4.4,9-6.2,18.75-5.75,30.15.54,11.22,3.05,17,10.68,24.77,8,8,16.52,11.49,30,12.21A70.93,70.93,0,0,0,269,256.54c3-.81,6.91-1.8,8.8-2.34a21.44,21.44,0,0,0,4.93-1.7c2.07-1.08,13.64-6.28,14.18-6.28,1.62,0,20.56-11.58,38.06-23.25,11.58-7.72,21.72-14.45,22.62-14.9s6.28-3.77,12.11-7.27,13-7.54,16-9.06,7.18-3.77,9.42-4.94,6.46-3.05,9.43-4.13,6.64-2.69,8.07-3.32,3.68-1.61,4.94-2.15c3.5-1.44,11.4-2.88,19.12-3.41,16.69-1.08,28.36,6.28,34.37,21.72,1.44,3.68,1.71,6.73,1.71,17.5,0,13.1-1.17,20.28-4.67,28.72-.72,1.7-1.7,4.13-2.24,5.38-4.49,10.77-13.74,26.21-24.33,40.21-10.05,13.47-31.68,35.81-45.95,47.57-4.94,4.13-10.41,8.62-12.12,10.05a153.11,153.11,0,0,1-13,9.52c-2,1.25-5.21,3.41-7.18,4.84-5.56,3.77-20.37,11.67-28.72,15.26-2.42,1.08-5.74,2.51-7.36,3.23a13.58,13.58,0,0,1-4.58,1.26,19.06,19.06,0,0,0-4.57,1c-5.84,2.06-11.76-1.89-11.76-7.9,0-7.36,3.5-12,25.58-33.93C355.71,314.52,358.31,311,358.31,302c0-9.24-4.39-15.53-14.27-20.55-4.3-2.25-5.92-2.51-13.46-2.51-8.8,0-13.91,1.25-20.28,5.11-1.44.9-3.68,2.07-4.94,2.69a15.3,15.3,0,0,0-2.69,1.62c-.27.27-2.07,1.62-4,3.14-4.76,3.59-13.11,12.12-17.86,18.31-3.32,4.31-5.75,8.35-11.4,18.94-4.67,8.79-8.89,25.13-8.89,34.64,0,19.3,10.06,34.74,25.58,39.13,4.67,1.35,23.7,1.35,30.25.09s23.34-6.55,24.41-7.53a3.75,3.75,0,0,1,2.16-.81c2.33,0,29-13.56,38.14-19.48,2.07-1.35,4.4-2.87,5.3-3.41s5-3.05,9.42-5.74,8.08-5.21,8.35-5.48a77.54,77.54,0,0,1,6.73-4.93c3.5-2.43,7.54-5.21,9-6.2s5.75-4.31,9.43-7.27c23.33-18.58,44-38.41,56-53.85,2-2.42,3.77-4.67,4-4.94.72-.53,6.82-9.33,11-16a114.29,114.29,0,0,0,6.37-11c1.71-3.23,4-7.63,5.21-9.87s3.68-8.08,5.65-13,3.77-9.78,4.13-10.77c2.52-6.37,6.38-22.8,8.08-34.55,1.89-13.29.45-35.1-3.23-47.12-1.53-4.94-1.89-5.84-5.21-13-7.18-15.43-18.66-29.44-31.86-38.59a46.75,46.75,0,0,1-5-4c-3.24-2.87-19.66-10.23-29.26-13a147.21,147.21,0,0,0-17-3.77C428.5,67.16,405.25,66.53,402.29,67.61Z" transform="translate(-42.09 -67.06)"/></g><g id="g4554"><g id="g4539"><path id="path8" class="cls-1" d="M662.48,471.94c-.27.18-4.39,1-9.33,1.8s-13,2.06-17.95,3l-9,1.53V560.8c0,89.66-.18,85.89,5.12,97.11a32.75,32.75,0,0,0,8.17,10.68c9.51,8.71,18.4,11.4,37.33,11.49,16.16,0,15.53.63,15.17-14.27L691.74,655l-6.91-.63c-12.29-1.08-18.22-6-19.56-16.25-.36-3-.63-41.46-.54-85.26C664.82,477.06,664.64,469.79,662.48,471.94Z" transform="translate(-42.09 -67.06)"/></g><g id="g4533"><path id="path10" class="cls-1" d="M414,473.74c-19.92,3-26.57,4.22-27.37,5.2-.63.72-.72,29.35-.45,84.1.45,76.47.63,83.38,2.06,87.06,3.41,8.71,5.21,11.76,9.78,16.34,9.43,9.42,21.46,13.28,41.2,13.28,10.95,0,12.48-.18,13.19-1.62.9-1.7,1.35-17.32.63-20.91-.54-2.24-.9-2.33-7.63-2.87-8.52-.54-13.55-3.41-17.05-9.6l-2.24-4-.27-46.49c-.18-34.65,0-46.86.81-47.84s3.85-1.26,13.46-1.26c14.81,0,13.55,1.44,13.19-15.71L453,517.72l-12.56-.45c-6.91-.27-13.11-.81-13.65-1.17-.89-.54-1.16-6-1.16-22.26V472.39l-2,.09C422.49,472.57,418.18,473.11,414,473.74Z" transform="translate(-42.09 -67.06)"/></g><g id="g4527"><path id="path12" class="cls-1" d="M103,514.22c-6.73.62-22.89,4.48-27.82,6.64a35.66,35.66,0,0,1-4,1.43c-4,1.08-17.06,7.63-17.06,8.53a29.44,29.44,0,0,0,1.71,4.67c5.92,13,8.17,17.68,8.62,17.68a8.3,8.3,0,0,0,2.06-.81A96.85,96.85,0,0,1,81,546.44c2.69-.81,5.92-1.89,7.18-2.34,5-1.79,18.4-2.69,24.59-1.7,12.21,2,16.7,7.63,17.41,22.08.36,8,.36,8.16-1.7,8.7-1.17.36-9.43.63-18.31.63-21.36,0-27.91,1.26-41.74,8-11.84,5.74-20.64,16.6-24.86,30.61-2.15,7.44-1.88,21.36.54,28.72,8.08,24.41,27.29,38.68,54,40.11,24.33,1.35,49.37-5.92,65.43-18.84l5.84-4.76.26-47.48c.27-55,.18-56.9-6.46-70.36-3-6.11-12.92-15.8-19.11-18.49-2.88-1.35-6-2.7-7-3.14C130.34,515.2,113.29,513.23,103,514.22Zm26.48,86.52c.53.72.89,11.4.89,24.32,0,25.49.36,23.87-6.28,27.37-2.51,1.35-5.29,1.62-14,1.71H99.2l-4.49-3a26.92,26.92,0,0,1-6.28-5.84c-6.64-9.69-6.19-27,.81-35.54,2.06-2.6,10-8.08,11.4-8.08a4.12,4.12,0,0,0,2.42-.8c1.26-1.35,5.38-1.71,15.88-1.53C126.48,599.39,128.82,599.66,129.45,600.74Z" transform="translate(-42.09 -67.06)"/></g><g id="g4530"><path id="path14" class="cls-1" d="M326.9,516.37c-17.86,4.22-32.13,11.85-46.49,25l-3.77,3.41V677.3c0,1.43,1.35,1.52,19.57,1.34l19.47-.27.27-62.55.18-62.47,3.41-2.69c4-3.24,6-4.22,11.22-6a61.47,61.47,0,0,1,23.16-2.24c3.59.36,7,.54,7.54.27s2.24-3.23,3.68-6.82,3.5-8.26,4.57-10.41c3-5.66,2.69-7.1-1.25-8-1.89-.45-5.3-1.26-7.72-1.8C354.36,514,334.89,514.49,326.9,516.37Z" transform="translate(-42.09 -67.06)"/></g><g id="g4536"><path id="path16" class="cls-1" d="M522.11,516.55c-3,.45-5.74,1.26-6.19,1.71a3.81,3.81,0,0,1-2.16.8c-.71,0-3.94,1.26-7.09,2.87-6.91,3.42-17.5,13.2-22,20.47-3.94,6.37-8.52,15.88-9.24,19.3a33.68,33.68,0,0,1-1.35,4.48c-.35,1-1.43,4.85-2.33,8.53-2.42,9.69-2.42,40.75-.09,49.81,2.15,8.35,7,21.09,7.9,21.09a.92.92,0,0,1,.81,1c0,3.41,10.68,17,18.22,23.07,3.32,2.69,10.77,6.55,16.33,8.43,6,2.07,19.3,4.31,25.22,4.31,12.75,0,35.72-5.47,43.35-10.32A30.2,30.2,0,0,1,589,669.4c2.69-.81,8.61-4.49,9.33-5.75S589.07,642,587.72,642a8.51,8.51,0,0,0-3.5,1.8,8,8,0,0,1-3.5,1.79,6.58,6.58,0,0,0-3,1.26A86.75,86.75,0,0,1,567.44,651c-8,2.78-9.34,3-21.1,3-11.12,0-13-.18-16.6-1.88C517.18,646.15,510,631,510,610.52c0-4.4.08-8.08.26-8.17s20-.45,44.16-.72l44-.44-.27-9c-.54-17.59-5.2-41.29-9.24-46.67-.36-.54-1.62-2.78-2.79-5-4.84-9.6-15.07-17.86-27.19-21.9C550,515.56,533.78,514.66,522.11,516.55Zm19.3,28.54c3.77,1,11.67,7.36,11.67,9.34a11.91,11.91,0,0,0,1.34,3.5c2.07,4,3.68,17.32,2.25,19-.9,1.17-4.4,1.35-22.53,1.35H512.69l-.54-2.24c-1.17-4.58,2-16.88,5.56-21.63,3.95-5.3,7.45-8,12.66-9.52,2.87-.81,5.65-1.34,6.28-1.17S539.34,544.55,541.41,545.09Z" transform="translate(-42.09 -67.06)"/></g><g id="g4524"><path id="path6" class="cls-1" d="M212.92,453.36c-6.83,3.5-8.89,5.21-11.85,9.61s-3,4.75-3,13.91v9.51l3.41,4.67c4,5.47,6.73,7.45,12.65,9.51,8,2.61,14.9,1.62,22.89-3.41,9.6-6.1,12.92-21.72,7.09-33.21-2.07-4-3.86-5.92-9.25-9.33C230.06,451.48,217.76,450.76,212.92,453.36Z" transform="translate(-42.09 -67.06)"/><path id="path18" class="cls-1" d="M234.9,518.17a72,72,0,0,1-9,1.7c-3.41.45-9.69,1.35-13.91,2a46.93,46.93,0,0,0-8.35,1.61c-.81.72-.9,153.21-.18,154.55.36.45,8.35.81,18.85.81,18.31,0,18.4,0,18.85-2.06.27-1.08.36-37.34.27-80.51-.27-77.82-.27-78.53-2.07-78.71A14.84,14.84,0,0,0,234.9,518.17Z" transform="translate(-42.09 -67.06)"/></g></g></g></g></svg>