<svg id="Layer_1" data-name="Layer 1" xmlns="http://www.w3.org/2000/svg" xmlns:xlink="http://www.w3.org/1999/xlink" viewBox="0 0 541.22 512.52"><defs><style>.cls-1{fill:#e5e5e5;}.cls-2{fill:url(#linear-gradient);}.cls-3,.cls-5{fill:#fff;}.cls-4{fill:#ededef;}.cls-5{font-size:98.73px;font-family:ArialRoundedMTBold, Arial Rounded MT Bold;}</style><linearGradient id="linear-gradient" x1="273.34" y1="607.64" x2="273.34" y2="589.41" gradientUnits="userSpaceOnUse"><stop offset="0" stop-color="#fff"/><stop offset="0.08" stop-color="#fcfcfc"/><stop offset="0.61" stop-color="#ebebeb"/><stop offset="1" stop-color="#e5e5e5"/></linearGradient></defs><title>SMS 0</title><path class="cls-1" d="M394.58,412.59H150.48a10.7,10.7,0,0,0-10.69,10.7V575.8a10.7,10.7,0,0,0,10.69,10.7h244.1a10.7,10.7,0,0,0,10.7-10.7V423.29A10.7,10.7,0,0,0,394.58,412.59Zm-123.95,2.54a3.62,3.62,0,1,1-3.62,3.61A3.61,3.61,0,0,1,270.63,415.13ZM396.26,575.4H150V424.62H396.26Z" transform="translate(-100.11 -103.95)"/><path class="cls-1" d="M0,502.11H346.46a0,0,0,0,1,0,0v1.46a9,9,0,0,1-9,9H8.8a8.8,8.8,0,0,1-8.8-8.8v-1.61a0,0,0,0,1,0,0Z"/><path class="cls-2" d="M101.86,607.64H445.58a1,1,0,0,0,.37-1.92L407,590.1a9.68,9.68,0,0,0-3.6-.69H141.89a11.33,11.33,0,0,0-4.07.75l-36.59,14.1A1.75,1.75,0,0,0,101.86,607.64Z" transform="translate(-100.11 -103.95)"/><path class="cls-1" d="M222.17,603.67h97.14a.28.28,0,0,0,.1-.54l-11-4.41a2.76,2.76,0,0,0-1-.2H233.48a3.25,3.25,0,0,0-1.15.21l-10.34,4A.49.49,0,0,0,222.17,603.67Z" transform="translate(-100.11 -103.95)"/><path class="cls-3" d="M286.44,470.34l38.37,12.59c3-9,5.86-17.79,8.82-26.77L295.3,443.53Zm9.93-24.87c2.33,3.16,10.62,14.71,12.62,17.17a3,3,0,0,0,2.56.59c6.42-1.87,19.89-6.05,20.25-6.14l.43.92-16.34,6.8,8.79,15.81-.86.49-9.88-15.42a19.75,19.75,0,0,0-3.05,1.2c-1.82,1.08-2.9.53-3.71-1.27a30.06,30.06,0,0,0-1.64-2.75l-17.2,6.57-.33-.69c5.09-3.12,10.88-4.89,16.29-7.73-2.61-5.2-6.27-9.83-8.68-15.1Z" transform="translate(-100.11 -103.95)"/><path class="cls-3" d="M460.21,523.55l-58.64-19.32q-2.67,8-5.31,16v19.37c6.21-3,12.81-5.37,19.08-8.66-4-8-9.6-15-13.29-23.1l1.16-.7c3.57,4.84,16.25,22.51,19.31,26.28.68.85,2.76,1.25,3.92.91,9.82-2.87,30.43-9.26,31-9.4l.67,1.41-25,10.41L446.53,561l-1.33.75-15.11-23.59a31.94,31.94,0,0,0-4.67,1.83c-2.78,1.65-4.44.82-5.68-1.94a40.78,40.78,0,0,0-2.51-4.21l-21,8V548l50.46,16.57C451.26,550.74,455.69,537.29,460.21,523.55Z" transform="translate(-100.11 -103.95)"/><path class="cls-4" d="M390.92,543.87l-.51-1.06c1.9-1.17,3.86-2.2,5.85-3.17V520.27c-2.75,8.32-5.49,16.62-8.26,25l8.26,2.71v-6.12Z" transform="translate(-100.11 -103.95)"/><path class="cls-3" d="M422.84,251.42c-6.44,6.68-12.75,13.22-19.22,19.91l-28.55-27.51c6.44-6.65,12.82-13.24,19.27-19.92Zm-2,1v-1c-.35-.07-14.05-2.13-20.52-3.21a2.85,2.85,0,0,1-2-1.61c-.72-3-3.12-16.78-3.83-20.57l-.87.08c-.11,5.69,1.15,11.34,1.24,17-6,.21-11.87-.71-17.7-.12v.76l18,1.52a26.43,26.43,0,0,1,.28,3.14c-.05,1.94.67,2.88,2.74,2.7a18.73,18.73,0,0,1,3.21.25c.74,6.11,1.45,12,2.15,17.84l1-.06-1-17.73Z" transform="translate(-100.11 -103.95)"/><path class="cls-3" d="M499,131.48l-19.22,19.91c-9.53-9.2-19-18.28-28.55-27.52L470.48,104Zm-2,1v-1c-.35-.07-14-2.12-20.52-3.2a2.91,2.91,0,0,1-2-1.62c-.72-3-3.12-16.78-3.83-20.57l-.86.08c-.12,5.69,1.14,11.34,1.24,17-6,.21-11.88-.7-17.71-.11v.75l18,1.53a28.19,28.19,0,0,1,.27,3.13c-.05,1.94.67,2.88,2.74,2.71a19.76,19.76,0,0,1,3.21.24l2.16,17.84,1-.06-1-17.72Z" transform="translate(-100.11 -103.95)"/><path class="cls-3" d="M620.14,434.79,588.8,459.62l-35.62-44.87,31.42-24.83Zm-3.09,1.1.2-1.43c-.49-.17-19.71-5.74-28.77-8.53a4.15,4.15,0,0,1-2.57-2.7c-.45-4.47-1.25-24.63-1.55-30.19l-1.25-.05c-1.25,8.13-.53,16.46-1.49,24.66-8.64-.86-16.87-3.29-25.33-3.56l-.15,1.08,25.5,5.64a40.26,40.26,0,0,1-.21,4.54c-.44,2.76.41,4.25,3.41,4.4a27.06,27.06,0,0,1,4.54,1c-.11,8.89-.22,17.43-.33,26l1.41.09c.64-8.48,1.27-17,1.92-25.58Z" transform="translate(-100.11 -103.95)"/><path class="cls-3" d="M629.28,231.72c4,25.13,8,49.72,12.05,74.92L534,324c-4-25.06-8-49.9-12-75.06Zm-1,6.14-2.18-1.66c-.74.65-27.78,27.31-40.8,39.74-1.54,1.47-5.11,2.52-6.86,1.75-7.83-3.41-41.94-20.77-51.43-25.44-.42.67-.83,1.35-1.24,2,12.29,9.62,26.76,16.15,39.45,25.35-9.43,13.51-21.09,24.89-29.39,38.64l1.66,1.25,33-37a73.4,73.4,0,0,1,7.33,4.54c4.17,3.31,7.43,3.27,10.44-1.55,1.52-2.43,3.8-4.39,5.82-6.64l42.69,24.63,1.47-2.24-40.59-26.9Z" transform="translate(-100.11 -103.95)"/><path class="cls-3" d="M470.88,453.64l-13.49,41-58.72-19.28c4.53-13.69,9-27.27,13.57-41Zm-2.13,2.82-.67-1.41c-.54.14-21.16,6.53-31,9.4a4.52,4.52,0,0,1-3.92-.9c-3.06-3.77-15.75-21.45-19.32-26.28l-1.15.69C416.41,446,422,453.1,426,461.06c-8.29,4.36-17.15,7.05-24.93,11.83l.51,1.06,26.31-10.06a43.84,43.84,0,0,1,2.51,4.21c1.24,2.76,2.89,3.59,5.68,1.95a31.17,31.17,0,0,1,4.66-1.84l15.12,23.59,1.33-.75c-4.47-8-8.93-16-13.46-24.18Z" transform="translate(-100.11 -103.95)"/><path class="cls-3" d="M338.15,438.41l12.3,24.46,34.95-17.68-12.31-24.4Zm45.57,5.28c-.08.31-.17.62-.26.93l-17.34-3.79a19.91,19.91,0,0,0-1.27,2.91c-.51,2-1.62,2.35-3.41,1.67a26.06,26.06,0,0,0-3-.76c-2.45,5.5-4.87,10.9-7.28,16.3l-.7-.25c1.34-5.63,4.1-10.81,5.87-16.47-5.36-1.78-11-2.44-16.31-4.4l.21-.83c3.76.57,17.37,2.81,20.43,3.12a2.82,2.82,0,0,0,2.16-1.35c3.11-5.68,9.49-17.78,9.67-18.09l.93.33c-2.15,5.21-4.29,10.41-6.54,15.88Z" transform="translate(-100.11 -103.95)"/><path class="cls-3" d="M432.87,314.51c-2,9.05-4,17.91-6.07,27l-38.69-8.66,6.11-27Zm-1.19,1.93-.51-.86c-.34.13-13.11,5.49-19.2,7.93a2.91,2.91,0,0,1-2.56-.33c-2.18-2.22-11.38-12.72-14-15.58l-.7.51c2.86,4.93,6.88,9.09,9.93,13.93-5,3.29-10.51,5.57-15.19,9.1l.39.65,16.18-8.06a26.15,26.15,0,0,1,1.86,2.53c1,1.68,2.07,2.11,3.75.89a18.82,18.82,0,0,1,2.87-1.46l11.12,14.12.8-.56-10.1-14.6Z" transform="translate(-100.11 -103.95)"/><path class="cls-3" d="M508.3,143.28,532.4,203l-85.5,34.61c-8-20-16-39.77-24.06-59.81Zm.29,5.27-2.12-1c-.48.68-17.82,27.82-26.24,40.56-1,1.5-3.75,3-5.34,2.74-7.12-1.35-38.6-9.27-47.33-11.34l-.65,1.91c12,5.63,25.18,8.3,37.41,13.51-5.25,12.95-12.75,24.56-17,37.51l1.61.71,20.29-36.81a66.24,66.24,0,0,1,6.92,2.38c4.07,2,6.75,1.31,8.34-3.26.8-2.29,2.31-4.34,3.55-6.58l40,12.32.79-2.13-38.64-14.59C496.48,172.13,502.53,160.34,508.59,148.55Z" transform="translate(-100.11 -103.95)"/><path class="cls-3" d="M577.8,344.43l-51,56.15-80.53-73.06,51.19-56.19Zm-5.46,3-.06-2.74c-1-.16-38.68-4.67-56.51-7.09-2.11-.29-5.16-2.42-5.65-4.27-2.21-8.25-9.92-45.74-12.2-56.07l-2.35.29c.15,15.61,4.08,31,4.8,46.64-16.44,1.06-32.61-.95-48.54,1.14l.06,2.07,49.48,2.7a73.23,73.23,0,0,1,1,8.57c0,5.31,2.08,7.84,7.73,7.19,2.85-.33,5.8.23,8.82.4,2.52,16.68,4.95,32.71,7.38,48.74l2.66-.25c-1.42-16.09-2.84-32.17-4.29-48.51Z" transform="translate(-100.11 -103.95)"/><path class="cls-3" d="M414.32,392.17l-15.95-31.6-45.24,22.81L369,414.91h.35Zm-58.52-8c4.87.73,22.49,3.63,26.45,4a3.7,3.7,0,0,0,2.8-1.75c4-7.36,12.29-23,12.52-23.42l1.2.42c-2.77,6.74-5.55,13.48-8.47,20.56l21.85,6.22-.34,1.2-22.46-4.91a24.74,24.74,0,0,0-1.64,3.77c-.66,2.57-2.11,3-4.42,2.17a35.13,35.13,0,0,0-3.9-1c-3.19,7.12-6.31,14.11-9.43,21.1l-.92-.32c1.75-7.29,5.32-14,7.61-21.33-6.94-2.29-14.3-3.15-21.12-5.69Z" transform="translate(-100.11 -103.95)"/><path class="cls-4" d="M360.84,424.62h-.36l.07.15Z" transform="translate(-100.11 -103.95)"/><path class="cls-3" d="M461.14,350.22c6.52,12.91,12.9,25.55,19.43,38.5l-55.15,27.89L406,378Zm.49,3.5-1.47-.52c-.28.48-10.34,19.58-15.25,28.55a4.52,4.52,0,0,1-3.41,2.13c-4.83-.5-26.3-4-32.24-4.93l-.33,1.31c8.32,3.1,17.28,4.14,25.73,6.94-2.78,8.94-7.13,17.11-9.26,26l1.11.39L438,387.87a40.76,40.76,0,0,1,4.76,1.2c2.82,1.07,4.58.49,5.38-2.65a31.55,31.55,0,0,1,2-4.59l27.37,6c.13-.49.27-1,.41-1.47l-26.62-7.58C454.86,370.14,458.25,361.93,461.63,353.72Z" transform="translate(-100.11 -103.95)"/><path class="cls-3" d="M615.65,352.12,600,356.76l-6.67-22.49L609,329.64Zm-1.34-.05.29-.52c-.16-.14-6.61-5.19-9.62-7.63a1.72,1.72,0,0,1-.57-1.42c.52-1.77,3.29-9.55,4-11.71l-.47-.21c-1.72,2.9-2.71,6.18-4.33,9.14-3.15-1.64-5.91-3.82-9.08-5.22l-.22.39,8.82,6a16.9,16.9,0,0,1-.77,1.69c-.59,1-.49,1.68.62,2.19a11.79,11.79,0,0,1,1.58,1.06l-4.09,9.81.52.26,4.64-9.43Z" transform="translate(-100.11 -103.95)"/><path class="cls-3" d="M605.83,190.26l-19.22,19.91-28.56-27.51,19.28-19.92Zm-2,1v-1c-.35-.07-14-2.13-20.52-3.21a2.9,2.9,0,0,1-2-1.61c-.72-3-3.11-16.78-3.83-20.57l-.86.08c-.12,5.69,1.14,11.34,1.24,17-6,.2-11.88-.71-17.71-.12v.76l18,1.52a28.5,28.5,0,0,1,.28,3.14c-.06,1.93.67,2.88,2.73,2.7a19.68,19.68,0,0,1,3.21.24l2.16,17.85,1-.06-1-17.73Z" transform="translate(-100.11 -103.95)"/><path class="cls-3" d="M542.67,442.42c-2.49,13.17-4.92,26.07-7.42,39.28L479,471.13c2.49-13.14,5-26.16,7.47-39.34Zm-1.62,2.85-.79-1.21c-.48.19-18.64,8.57-27.32,12.4a4.16,4.16,0,0,1-3.71-.35c-3.27-3.09-17.07-17.79-20.94-21.8l-1,.78c4.37,7,10.38,12.78,15,19.61-7.08,5-14.9,8.57-21.47,13.9l.6.92,23-12.45a38.74,38.74,0,0,1,2.82,3.57c1.48,2.38,3.1,2.94,5.46,1.09a28.17,28.17,0,0,1,4.06-2.25l16.76,19.84,1.13-.85c-5.07-6.83-10.15-13.66-15.31-20.59Z" transform="translate(-100.11 -103.95)"/><path class="cls-3" d="M484.89,249.76c.29,16.14.56,31.93.85,48.11l-68.93,1.28c-.27-16.1-.53-32-.79-48.19Zm-1.21,3.76-1.22-1.24c-.52.35-19.88,14.66-29.17,21.29-1.09.78-3.43,1.12-4.46.49-4.61-2.85-24.46-16.81-30-20.59l-1,1.16c6.85,7.14,15.35,12.54,22.49,19.45-7.13,7.63-15.47,13.73-21.91,21.62l.93.93,24-20.26a46.11,46.11,0,0,1,4.19,3.51c2.32,2.44,4.37,2.72,6.7,0a33.77,33.77,0,0,1,4.24-3.65l24.59,19.29,1.12-1.27-23.06-20.53Z" transform="translate(-100.11 -103.95)"/><path class="cls-3" d="M332.09,510.4l49.68,16.31,11.42-34.66-49.62-16.36C339.72,487.32,335.92,498.81,332.09,510.4ZM345,478.19c3,4.1,13.76,19.05,16.34,22.24a3.8,3.8,0,0,0,3.32.77c8.31-2.43,25.75-7.84,26.21-7.95l.56,1.19-21.16,8.81c3.84,6.89,7.61,13.68,11.39,20.46l-1.12.63c-4.21-6.56-8.41-13.12-12.79-20a25.76,25.76,0,0,0-3.95,1.55c-2.36,1.4-3.76.69-4.81-1.64a35,35,0,0,0-2.12-3.56l-22.26,8.51-.44-.9c6.59-4,14.09-6.33,21.1-10-3.38-6.73-8.12-12.72-11.25-19.55Z" transform="translate(-100.11 -103.95)"/><path class="cls-3" d="M568,235.53l-19.22,19.9L520.2,227.92c6.44-6.65,12.82-13.24,19.27-19.92Zm-2,1v-1c-.36-.07-14.05-2.12-20.52-3.2a2.89,2.89,0,0,1-2-1.62c-.72-3-3.12-16.78-3.83-20.57l-.87.08c-.11,5.69,1.15,11.34,1.24,17.05-6,.21-11.87-.7-17.7-.11v.75l18,1.53a26.09,26.09,0,0,1,.28,3.13c0,1.94.67,2.88,2.74,2.71a19.76,19.76,0,0,1,3.21.24c.74,6.11,1.45,12,2.15,17.84l1-.06-1-17.72Z" transform="translate(-100.11 -103.95)"/><path class="cls-3" d="M359.2,315.67,377,350.13l-49.35,25.51L309.86,341.1Zm.46,3.15-1.32-.46c-.25.43-9.14,17.68-13.48,25.78a4.08,4.08,0,0,1-3.06,1.95c-4.34-.42-23.66-3.42-29-4.18l-.28,1.19c7.49,2.71,15.56,3.57,23.18,6-2.43,8.06-6.28,15.44-8.12,23.44l1,.34c3.36-7.68,6.71-15.37,10.13-23.2a38.4,38.4,0,0,1,4.28,1c2.55.94,4.12.4,4.82-2.42a27.36,27.36,0,0,1,1.77-4.15l24.64,5.17.36-1.32-24-6.61Z" transform="translate(-100.11 -103.95)"/><path class="cls-3" d="M602.05,532.61l-19.38,58.83-84.33-27.68,19.48-58.91Zm-3.07,4-1-2c-.78.2-30.38,9.38-44.48,13.5-1.67.49-4.65-.09-5.63-1.3-4.39-5.41-22.61-30.8-27.74-37.74l-1.66,1c5.31,11.59,13.35,21.74,19.09,33.17-11.9,6.26-24.62,10.13-35.8,17l.73,1.53,37.78-14.45a58.6,58.6,0,0,1,3.61,6c1.78,4,4.16,5.16,8.16,2.79,2-1.19,4.39-1.75,6.7-2.63l21.71,33.87,1.9-1.07-19.33-34.73Z" transform="translate(-100.11 -103.95)"/><text class="cls-5" transform="translate(10.61 132.63)">SMS</text></svg>