<?xml version="1.0" encoding="utf-8"?>
<!-- Generator: Adobe Illustrator 26.0.3, SVG Export Plug-In . SVG Version: 6.00 Build 0)  -->
<svg version="1.1" id="Layer_1" xmlns="http://www.w3.org/2000/svg" xmlns:xlink="http://www.w3.org/1999/xlink" x="0px" y="0px"
	 viewBox="0 0 533 540" enable-background="new 0 0 533 540" xml:space="preserve">
<rect fill="#FFFFFF" width="533" height="540"/>
<g>
	<g>
		<g>
			<path fill="#2171FC" d="M494.343,377.653c0-21.341,17.3-38.638,38.636-38.638v-15.05H429.957V431.65h103.021v-15.358
				C511.643,416.292,494.343,398.993,494.343,377.653z"/>
			<path fill="#54E9F1" d="M494.343,377.653c0,21.34,17.3,38.639,38.636,38.639v-77.276
				C511.643,339.016,494.343,356.312,494.343,377.653z"/>
		</g>
		<path fill="#2171FC" d="M322.274,431.65h-53.298l0,0c0-29.436,23.86-53.3,53.298-53.3l0,0V431.65"/>
		<path fill="#54E9F1" d="M215.678,431.65v-53.3l0,0c29.434,0,53.298,23.864,53.298,53.3l0,0H215.678"/>
		<path fill-rule="evenodd" clip-rule="evenodd" fill="#414D87" d="M430.501,431.65h-53.298V323.966h53.298
			c29.434,0,53.298,23.863,53.298,53.298v1.087C483.799,407.789,459.935,431.65,430.501,431.65z"/>
		<path fill-rule="evenodd" clip-rule="evenodd" fill="#3F6AB2" d="M269.52,350.889c0,14.867-12.054,26.918-26.923,26.918
			c-14.869,0-26.919-12.051-26.919-26.918c0-14.87,12.05-26.923,26.919-26.923C257.466,323.966,269.52,336.019,269.52,350.889z"/>
		<path fill-rule="evenodd" clip-rule="evenodd" fill="#1F1B7D" d="M323.361,350.889c0,14.867-12.054,26.918-26.923,26.918
			c-14.865,0-26.918-12.051-26.918-26.918c0-14.87,12.053-26.923,26.918-26.923C311.308,323.966,323.361,336.019,323.361,350.889z"
			/>
		<path fill-rule="evenodd" clip-rule="evenodd" fill="#30B8FF" d="M377.203,350.889c0,14.867-12.054,26.918-26.923,26.918
			c-14.865,0-26.919-12.051-26.919-26.918c0-14.87,12.054-26.923,26.919-26.923C365.149,323.966,377.203,336.019,377.203,350.889z"
			/>
		<path fill-rule="evenodd" clip-rule="evenodd" fill="#30B8FF" d="M107.991,323.966c29.738,0,53.842,24.107,53.842,53.841
			c0,29.739-24.104,53.844-53.842,53.844V323.966z"/>
		<path fill-rule="evenodd" clip-rule="evenodd" fill="#54E9F1" d="M215.678,431.65c-29.738,0-53.845-24.104-53.845-53.844
			c0-29.734,24.107-53.841,53.845-53.841V431.65z"/>
		<polygon fill-rule="evenodd" clip-rule="evenodd" fill="#2171FC" points="376.116,431.923 322.274,431.923 322.274,378.079 		"/>
		<rect y="323.657" fill-rule="evenodd" clip-rule="evenodd" fill="#414D87" width="107.991" height="107.993"/>
		<path fill-rule="evenodd" clip-rule="evenodd" fill="#1F1B7D" d="M92.635,377.653c0,21.34-17.299,38.639-38.64,38.639
			s-38.64-17.299-38.64-38.639c0-21.341,17.299-38.638,38.64-38.638S92.635,356.312,92.635,377.653z"/>
	</g>
	<g>
		<path fill="#414D87" d="M322.505,433.01v53.298l0,0c-29.434,0-53.298-23.861-53.298-53.298l0,0H322.505"/>
		<path fill="#414D87" d="M322.505,539.606h-53.298l0,0c0-29.437,23.864-53.298,53.298-53.298l0,0V539.606"/>
		<path fill-rule="evenodd" clip-rule="evenodd" fill="#414D87" d="M374.574,539.606h-52.069V433.01h52.069
			c29.438,0,53.298,23.861,53.298,53.298l0,0C427.872,515.744,404.012,539.606,374.574,539.606z"/>
		<rect x="427.872" y="431.923" fill-rule="evenodd" clip-rule="evenodd" fill="#1F1B7D" width="105.106" height="107.683"/>
		
			<rect x="161.837" y="431.923" transform="matrix(-1.836970e-16 1 -1 -1.836970e-16 701.4426 270.0858)" fill-rule="evenodd" clip-rule="evenodd" fill="#2171FC" width="107.683" height="107.683"/>
		<polygon fill-rule="evenodd" clip-rule="evenodd" fill="#3F6AB2" points="215.366,431.923 215.366,539.606 161.524,485.764 		"/>
		<path fill-rule="evenodd" clip-rule="evenodd" fill="#54E9F1" d="M0,431.923c29.734,0,53.841,24.104,53.841,53.841
			c0,29.736-24.107,53.842-53.841,53.842V431.923z"/>
		<path fill-rule="evenodd" clip-rule="evenodd" fill="#1F1B7D" d="M215.366,431.923c29.738,0,53.841,24.104,53.841,53.841
			c0,29.736-24.103,53.842-53.841,53.842V431.923z"/>
		<path fill-rule="evenodd" clip-rule="evenodd" fill="#414D87" d="M107.683,539.606c-29.738,0-53.841-24.106-53.841-53.842
			c0-29.736,24.103-53.841,53.841-53.841V539.606z"/>
		<g>
			<path fill="#414D87" d="M161.524,485.764l-53.842-53.841v29.079c13.677,0,24.761,11.088,24.761,24.762
				c0,13.675-11.084,24.763-24.761,24.763v29.079L161.524,485.764z"/>
			<path fill="#2171FC" d="M132.443,485.764c0-13.674-11.084-24.762-24.761-24.762v49.524
				C121.359,510.526,132.443,499.439,132.443,485.764z"/>
			<path fill="#3F6AB2" d="M83.016,485.765c0,13.674,11.084,24.762,24.761,24.762v-49.524
				C94.1,461.002,83.016,472.09,83.016,485.765z"/>
		</g>
		<path fill="#3F6AB2" d="M409.813,486.308c0,19.123-15.502,34.625-34.623,34.625c-19.125,0-34.627-15.502-34.627-34.625
			c0-19.123,15.502-34.625,34.627-34.625C394.311,451.683,409.813,467.185,409.813,486.308z"/>
		<path fill-rule="evenodd" clip-rule="evenodd" fill="#FFFFFF" d="M507.346,486.308c0,14.869-12.049,26.921-26.918,26.921
			c-14.869,0-26.923-12.052-26.923-26.921c0-14.867,12.054-26.921,26.923-26.921C495.297,459.387,507.346,471.44,507.346,486.308z"
			/>
	</g>
	<g>
		<path fill="#414D87" d="M322.505,1.421v53.298l0,0c-29.434,0-53.298-23.862-53.298-53.298l0,0H322.505"/>
		<path fill="#414D87" d="M322.505,108.017h-53.298l0,0c0-29.436,23.864-53.298,53.298-53.298l0,0V108.017"/>
		<path fill-rule="evenodd" clip-rule="evenodd" fill="#414D87" d="M374.574,108.017h-52.069V1.421h52.069
			c29.438,0,53.298,23.862,53.298,53.298l0,0C427.872,84.155,404.012,108.017,374.574,108.017z"/>
		<rect x="427.872" y="0.334" fill-rule="evenodd" clip-rule="evenodd" fill="#1F1B7D" width="105.106" height="107.683"/>
		<rect x="108.969" y="0.334" fill-rule="evenodd" clip-rule="evenodd" fill="#3F6AB2" width="105.107" height="107.683"/>
		
			<rect x="0" y="0.334" transform="matrix(-1.836970e-16 1 -1 -1.836970e-16 108.0168 0.3343)" fill-rule="evenodd" clip-rule="evenodd" fill="#1F1B7D" width="107.683" height="107.683"/>
		<polygon fill-rule="evenodd" clip-rule="evenodd" fill="#1F1B7D" points="215.366,0.334 215.366,108.017 161.524,54.176 		"/>
		<path fill-rule="evenodd" clip-rule="evenodd" fill="#54E9F1" d="M0,0.334c29.734,0,53.841,24.105,53.841,53.842
			c0,29.736-24.107,53.841-53.841,53.841V0.334z"/>
		<path fill-rule="evenodd" clip-rule="evenodd" fill="#1F1B7D" d="M215.366,0.334c29.738,0,53.841,24.105,53.841,53.842
			c0,29.736-24.103,53.841-53.841,53.841V0.334z"/>
		<path fill-rule="evenodd" clip-rule="evenodd" fill="#414D87" d="M107.683,108.017c-29.738,0-53.841-24.105-53.841-53.841
			c0-29.737,24.103-53.842,53.841-53.842V108.017z"/>
		<g>
			<path fill="#414D87" d="M161.524,54.176L107.683,0.334v29.079c13.677,0,24.761,11.088,24.761,24.763
				c0,13.674-11.084,24.762-24.761,24.762v29.079L161.524,54.176z"/>
			<path fill="#2171FC" d="M132.443,54.176c0-13.675-11.084-24.763-24.761-24.763v49.525
				C121.359,78.938,132.443,67.85,132.443,54.176z"/>
		</g>
		<path fill="#FFFFFF" d="M409.813,54.719c0,19.123-15.502,34.625-34.623,34.625c-19.125,0-34.627-15.502-34.627-34.625
			c0-19.123,15.502-34.625,34.627-34.625C394.311,20.094,409.813,35.596,409.813,54.719z"/>
		<path fill-rule="evenodd" clip-rule="evenodd" fill="#54E9F1" d="M507.346,54.719c0,14.869-12.049,26.921-26.918,26.921
			c-14.869,0-26.923-12.052-26.923-26.921c0-14.867,12.054-26.921,26.923-26.921C495.297,27.798,507.346,39.852,507.346,54.719z"/>
	</g>
	<g>
		<rect x="214.98" y="107.706" fill-rule="evenodd" clip-rule="evenodd" fill="#414D87" width="107.992" height="107.995"/>
		<g>
			<path fill="#2171FC" d="M494.343,161.704c0-21.339,17.3-38.638,38.636-38.638v-15.049H429.957v107.684h103.021v-15.359
				C511.643,200.342,494.343,183.042,494.343,161.704z"/>
			<path fill="#54E9F1" d="M494.343,161.704c0,21.339,17.3,38.639,38.636,38.639v-77.276
				C511.643,123.066,494.343,140.364,494.343,161.704z"/>
		</g>
		<path fill="#2171FC" d="M322.274,215.701h-53.298l0,0c0-29.436,23.86-53.299,53.298-53.299l0,0V215.701"/>
		<path fill="#54E9F1" d="M215.678,215.701v-53.299l0,0c29.434,0,53.298,23.863,53.298,53.299l0,0H215.678"/>
		<path fill-rule="evenodd" clip-rule="evenodd" fill="#414D87" d="M430.501,215.701h-53.298V108.017h53.298
			c29.434,0,53.298,23.862,53.298,53.298v1.087C483.799,191.838,459.935,215.701,430.501,215.701z"/>
		<path fill-rule="evenodd" clip-rule="evenodd" fill="#3F6AB2" d="M269.52,134.938c0,14.868-12.054,26.92-26.923,26.92
			c-14.869,0-26.919-12.052-26.919-26.92s12.05-26.921,26.919-26.921C257.466,108.017,269.52,120.07,269.52,134.938z"/>
		<path fill-rule="evenodd" clip-rule="evenodd" fill="#1F1B7D" d="M323.361,134.938c0,14.868-12.054,26.92-26.923,26.92
			c-14.865,0-26.918-12.052-26.918-26.92s12.053-26.921,26.918-26.921C311.308,108.017,323.361,120.07,323.361,134.938z"/>
		<path fill-rule="evenodd" clip-rule="evenodd" fill="#30B8FF" d="M377.203,134.938c0,14.868-12.054,26.92-26.923,26.92
			c-14.865,0-26.919-12.052-26.919-26.92s12.054-26.921,26.919-26.921C365.149,108.017,377.203,120.07,377.203,134.938z"/>
		<path fill-rule="evenodd" clip-rule="evenodd" fill="#30B8FF" d="M107.991,108.017c29.738,0,53.842,24.105,53.842,53.841
			c0,29.737-24.104,53.843-53.842,53.843V108.017z"/>
		<path fill-rule="evenodd" clip-rule="evenodd" fill="#54E9F1" d="M215.678,215.701c-29.738,0-53.845-24.106-53.845-53.843
			c0-29.736,24.107-53.841,53.845-53.841V215.701z"/>
		<polygon fill-rule="evenodd" clip-rule="evenodd" fill="#2171FC" points="376.116,215.973 322.274,215.973 322.274,162.13 		"/>
		<path fill-rule="evenodd" clip-rule="evenodd" fill="#1F1B7D" d="M92.635,161.704c0,21.34-17.299,38.639-38.64,38.639
			s-38.64-17.298-38.64-38.639c0-21.339,17.299-38.638,38.64-38.638S92.635,140.364,92.635,161.704z"/>
	</g>
	<g>
		<path fill="#414D87" d="M322.505,217.061v53.299l0,0c-29.434,0-53.298-23.864-53.298-53.299l0,0H322.505"/>
		<path fill="#414D87" d="M322.505,323.657h-53.298l0,0c0-29.438,23.864-53.298,53.298-53.298l0,0V323.657"/>
		<path fill-rule="evenodd" clip-rule="evenodd" fill="#414D87" d="M374.574,323.657h-52.069V217.061h52.069
			c29.438,0,53.298,23.86,53.298,53.299l0,0C427.872,299.793,404.012,323.657,374.574,323.657z"/>
		
			<rect x="107.68" y="215.974" transform="matrix(-1.836970e-16 1 -1 -1.836970e-16 431.3374 108.2929)" fill-rule="evenodd" clip-rule="evenodd" fill="#1F1B7D" width="107.684" height="107.683"/>
		<polygon fill-rule="evenodd" clip-rule="evenodd" fill="#1F1B7D" points="215.366,215.973 215.366,323.657 161.524,269.815 		"/>
		<path fill-rule="evenodd" clip-rule="evenodd" fill="#54E9F1" d="M0,215.973c29.734,0,53.841,24.104,53.841,53.842
			c0,29.734-24.107,53.842-53.841,53.842V215.973z"/>
		<path fill-rule="evenodd" clip-rule="evenodd" fill="#1F1B7D" d="M215.366,215.973c29.738,0,53.841,24.104,53.841,53.842
			c0,29.734-24.103,53.842-53.841,53.842V215.973z"/>
		<path fill-rule="evenodd" clip-rule="evenodd" fill="#414D87" d="M107.683,323.657c-29.738,0-53.841-24.107-53.841-53.842
			c0-29.738,24.103-53.842,53.841-53.842V323.657z"/>
		<g>
			<path fill="#414D87" d="M161.524,269.815l-53.842-53.842v29.079c13.677,0,24.761,11.088,24.761,24.764
				c0,13.673-11.084,24.761-24.761,24.761v29.081L161.524,269.815z"/>
			<path fill="#2171FC" d="M83.23,269.812c0,13.676,11.084,24.764,24.761,24.764v-49.524C94.314,245.052,83.23,256.14,83.23,269.812
				z"/>
		</g>
		<path fill="#3F6AB2" d="M409.813,270.359c0,19.121-15.502,34.623-34.623,34.623c-19.125,0-34.627-15.502-34.627-34.623
			c0-19.125,15.502-34.628,34.627-34.628C394.311,235.732,409.813,251.234,409.813,270.359z"/>
		<path fill-rule="evenodd" clip-rule="evenodd" fill="#54E9F1" d="M507.346,270.359c0,14.869-12.049,26.919-26.918,26.919
			c-14.869,0-26.923-12.05-26.923-26.919c0-14.869,12.054-26.923,26.923-26.923C495.297,243.436,507.346,255.49,507.346,270.359z"/>
	</g>
</g>
<path fill-rule="evenodd" clip-rule="evenodd" fill="#1F1B7D" d="M403.037,54.722c0,14.867-12.055,26.918-26.923,26.918
	c-14.865,0-26.919-12.051-26.919-26.918c0-14.87,12.054-26.923,26.919-26.923C390.982,27.799,403.037,39.852,403.037,54.722z"/>
<path fill-rule="evenodd" clip-rule="evenodd" fill="#2171FC" d="M80.763,377.656c0,14.867-12.055,26.918-26.923,26.918
	c-14.865,0-26.919-12.051-26.919-26.918c0-14.87,12.054-26.923,26.919-26.923C68.708,350.733,80.763,362.786,80.763,377.656z"/>
</svg>
